<svg version="1.1" id="Layer_1" xmlns="http://www.w3.org/2000/svg" xmlns:xlink="http://www.w3.org/1999/xlink" x="0px" y="0px"
	 width="100%" viewBox="0 0 512 512" enable-background="new 0 0 512 512" xml:space="preserve">
<path fill="#FFFFFF" opacity="1.000000" stroke="none" 
	d="
M184.000000,513.000000 
	C123.013863,513.000000 62.027721,513.000000 1.020790,513.000000 
	C1.020790,342.385986 1.020790,171.771942 1.020790,1.078957 
	C171.575226,1.078957 342.150482,1.078957 512.862915,1.078957 
	C512.862915,171.666595 512.862915,342.333282 512.862915,513.000000 
	C452.237823,513.000000 391.584930,513.000000 330.505005,512.536804 
	C330.080261,510.743866 329.970337,509.402924 330.102173,508.086151 
	C331.517487,493.951477 322.279846,485.164795 307.890503,485.475281 
	C278.815643,486.102753 249.717758,485.657043 220.629379,485.666382 
	C213.981674,485.668518 207.320663,485.466492 200.689453,485.812225 
	C191.402252,486.296509 184.340179,493.730560 183.971176,503.031494 
	C183.839569,506.348724 183.982437,509.676849 184.000000,513.000000 
M267.192688,6.723757 
	C266.952698,6.643654 266.712677,6.563551 266.472687,6.483452 
	C266.655518,6.648647 266.838348,6.813841 266.837341,7.782918 
	C268.723114,16.553478 271.446960,25.242603 272.308899,34.112652 
	C273.803223,49.490559 275.182831,65.013184 274.697388,80.414818 
	C274.138184,98.155159 264.393036,112.381203 253.095779,125.429489 
	C244.813232,134.995804 236.211914,144.301208 228.253464,154.128464 
	C221.341797,162.663116 218.722931,172.572433 221.465225,183.665405 
	C242.649307,183.665405 263.736938,183.665405 284.908813,183.665405 
	C286.741333,162.789459 295.075256,144.944183 306.824402,128.033768 
	C323.541260,103.973442 327.746216,77.814423 314.502167,50.716686 
	C304.613983,30.485062 287.317413,17.474485 268.080475,6.819513 
	C267.811493,6.670525 267.293488,6.971216 267.192688,6.723757 
M313.500000,247.922516 
	C249.343460,247.921112 185.186905,247.891266 121.030388,247.934830 
	C100.539177,247.948730 84.761246,261.476562 83.586037,281.727631 
	C82.555305,299.489105 82.243706,317.467896 83.768684,335.165039 
	C86.807770,370.433197 113.792564,394.048004 149.138260,394.074677 
	C159.803268,394.082733 170.470047,393.981201 181.131668,394.172302 
	C183.082977,394.207306 185.382584,394.946381 186.899551,396.146454 
	C229.901611,430.166260 284.472504,430.183868 327.091003,396.190094 
	C328.603455,394.983704 330.892883,394.204651 332.835480,394.173309 
	C345.163727,393.974152 357.502563,394.287903 369.826172,393.972626 
	C400.056641,393.199097 427.468170,368.250763 429.909607,338.167725 
	C431.293945,321.109558 430.731934,303.881042 430.766907,286.728699 
	C430.814545,263.351288 415.284790,247.931900 391.987976,247.923920 
	C366.158661,247.915085 340.329315,247.922302 313.500000,247.922516 
M196.320862,183.928497 
	C198.419846,183.928497 200.518845,183.928497 202.888565,183.928497 
	C199.966293,166.441803 205.877228,152.159897 216.367020,139.522842 
	C225.504028,128.515488 235.428009,118.155457 244.440079,107.051483 
	C268.078247,77.926346 256.209869,40.507515 229.170746,26.291212 
	C228.091339,25.723690 226.897537,25.373724 226.463440,25.201939 
	C225.809296,33.471977 226.069717,41.724571 224.358444,49.545757 
	C220.051880,69.228477 206.374878,81.346535 189.494339,90.828835 
	C180.411743,95.930786 171.208923,101.249641 163.306854,107.942375 
	C138.396744,129.040222 133.225616,153.277405 142.021851,183.928497 
	C159.754593,183.928497 177.557739,183.928497 196.320862,183.928497 
M296.499786,229.676636 
	C323.158112,229.678497 349.816498,229.693909 376.474762,229.658356 
	C378.794250,229.655273 381.156830,229.537811 383.424103,229.091171 
	C389.553619,227.883636 393.871246,222.579132 394.051910,216.336060 
	C394.302277,207.685699 388.023956,202.070679 377.944977,202.068863 
	C297.303558,202.054367 216.662125,202.059860 136.020691,202.066254 
	C134.689316,202.066360 133.339783,202.030609 132.029541,202.222214 
	C124.340530,203.346512 119.273445,209.753922 119.992950,217.359024 
	C120.734016,225.192017 126.906166,229.676743 137.049316,229.678131 
	C189.866135,229.685318 242.682938,229.678543 296.499786,229.676636 
M372.466492,92.233536 
	C371.849335,91.276253 371.232208,90.318977 370.461548,89.123589 
	C363.781097,105.808502 353.459015,119.480728 340.583069,131.415176 
	C332.525574,138.883484 324.642975,146.558884 316.992432,154.442719 
	C309.163086,162.510803 304.226868,172.103806 303.316254,183.928421 
	C325.488342,183.928421 347.455811,183.970673 369.421875,183.817886 
	C370.670410,183.809189 372.312378,182.469772 373.085907,181.297485 
	C378.739655,172.729309 382.380768,163.310776 383.951141,153.174057 
	C387.263214,131.794662 382.011688,111.946991 372.466492,92.233536 
M238.795227,455.491333 
	C238.795227,459.267029 238.795227,463.042725 238.795227,466.894836 
	C251.167465,466.894836 263.039612,466.894836 274.948120,466.894836 
	C274.948120,457.362518 274.948120,448.123657 274.948120,439.302612 
	C262.838135,439.302612 250.987183,439.302612 238.795227,439.302612 
	C238.795227,444.239807 238.795227,449.367828 238.795227,455.491333 
z"/>
<path fill="#000000" opacity="1.000000" stroke="none" 
	d="
M184.468658,513.000000 
	C183.982437,509.676849 183.839569,506.348724 183.971176,503.031494 
	C184.340179,493.730560 191.402252,486.296509 200.689453,485.812225 
	C207.320663,485.466492 213.981674,485.668518 220.629379,485.666382 
	C249.717758,485.657043 278.815643,486.102753 307.890503,485.475281 
	C322.279846,485.164795 331.517487,493.951477 330.102173,508.086151 
	C329.970337,509.402924 330.080261,510.743866 330.038940,512.536804 
	C281.645782,513.000000 233.291550,513.000000 184.468658,513.000000 
z"/>
<path fill="#020202" opacity="1.000000" stroke="none" 
	d="
M314.000000,247.922516 
	C340.329315,247.922302 366.158661,247.915085 391.987976,247.923920 
	C415.284790,247.931900 430.814545,263.351288 430.766907,286.728699 
	C430.731934,303.881042 431.293945,321.109558 429.909607,338.167725 
	C427.468170,368.250763 400.056641,393.199097 369.826172,393.972626 
	C357.502563,394.287903 345.163727,393.974152 332.835480,394.173309 
	C330.892883,394.204651 328.603455,394.983704 327.091003,396.190094 
	C284.472504,430.183868 229.901611,430.166260 186.899551,396.146454 
	C185.382584,394.946381 183.082977,394.207306 181.131668,394.172302 
	C170.470047,393.981201 159.803268,394.082733 149.138260,394.074677 
	C113.792564,394.048004 86.807770,370.433197 83.768684,335.165039 
	C82.243706,317.467896 82.555305,299.489105 83.586037,281.727631 
	C84.761246,261.476562 100.539177,247.948730 121.030388,247.934830 
	C185.186905,247.891266 249.343460,247.921112 314.000000,247.922516 
M276.870667,292.682983 
	C275.936615,290.740173 274.964447,288.814606 274.075348,286.851471 
	C270.730591,279.466125 264.956146,275.301056 256.928009,275.335358 
	C248.907150,275.369598 242.461029,279.322113 240.057449,287.037811 
	C237.011658,296.814972 230.878510,300.205353 221.092041,300.149994 
	C213.260223,300.105652 207.622375,304.658325 205.008270,312.152252 
	C202.372482,319.708282 204.060471,326.960724 210.423721,331.417603 
	C219.020157,337.438568 221.232559,344.206360 217.883240,354.059845 
	C215.452667,361.210358 218.606995,367.502563 224.502625,372.037933 
	C230.432648,376.599762 236.991760,377.128906 243.727875,373.863373 
	C247.010391,372.272125 250.262024,370.566193 253.335052,368.609680 
	C255.854401,367.005707 257.919708,366.754700 260.553955,368.515137 
	C263.712555,370.626007 267.160858,372.343170 270.601593,373.983551 
	C277.397339,377.223511 283.967133,376.432129 289.792847,371.823547 
	C295.446106,367.351379 297.804230,361.376221 296.313324,354.128357 
	C295.644104,350.875153 294.610901,347.642700 294.431549,344.363159 
	C294.323944,342.395538 295.033295,339.924469 296.280640,338.440460 
	C298.613098,335.665527 301.700989,333.542145 304.300659,330.971771 
	C309.292175,326.036530 311.237946,320.136597 309.313049,313.226807 
	C307.399780,306.358734 302.810822,302.116394 295.977051,300.492889 
	C292.598175,299.690125 289.070831,299.131348 285.612427,299.140198 
	C281.261780,299.151337 278.220612,297.887878 276.870667,292.682983 
M103.134628,342.077667 
	C108.063744,358.198914 118.300903,369.732025 134.670242,373.711700 
	C145.093292,376.245728 156.233643,375.829346 166.779160,376.713043 
	C167.185379,375.354218 167.320038,375.148834 167.264633,375.050690 
	C166.776154,374.185242 166.285934,373.317596 165.736908,372.489960 
	C155.243820,356.672180 148.700363,339.373810 147.832275,320.379730 
	C147.088486,304.105591 147.366852,287.784668 147.198166,271.484375 
	C147.180176,269.746368 147.195740,268.008026 147.195740,266.077118 
	C138.142548,266.077118 129.838089,266.041504 121.534050,266.085449 
	C109.087479,266.151337 101.734291,273.442749 101.654716,285.958252 
	C101.563736,300.268860 101.530159,314.581604 101.691322,328.890930 
	C101.737770,333.014923 102.541969,337.130371 103.134628,342.077667 
M355.123566,360.614258 
	C352.304718,365.598022 349.485870,370.581757 346.534637,375.799561 
	C354.423981,375.799561 361.915009,376.174622 369.356964,375.729340 
	C391.835541,374.384369 410.928009,356.456360 411.934570,334.939880 
	C412.734802,317.834961 412.455597,300.665924 412.216400,283.531464 
	C412.089142,274.416840 405.527008,267.068176 396.495819,266.409363 
	C386.777283,265.700378 376.966980,266.249146 366.796997,266.249146 
	C366.796997,281.163391 366.831238,295.770935 366.788086,310.378265 
	C366.736786,327.744934 363.246155,344.341888 355.123566,360.614258 
z"/>
<path fill="#020202" opacity="1.000000" stroke="none" 
	d="
M195.840881,183.928497 
	C177.557739,183.928497 159.754593,183.928497 142.021851,183.928497 
	C133.225616,153.277405 138.396744,129.040222 163.306854,107.942375 
	C171.208923,101.249641 180.411743,95.930786 189.494339,90.828835 
	C206.374878,81.346535 220.051880,69.228477 224.358444,49.545757 
	C226.069717,41.724571 225.809296,33.471977 226.463440,25.201939 
	C226.897537,25.373724 228.091339,25.723690 229.170746,26.291212 
	C256.209869,40.507515 268.078247,77.926346 244.440079,107.051483 
	C235.428009,118.155457 225.504028,128.515488 216.367020,139.522842 
	C205.877228,152.159897 199.966293,166.441803 202.888565,183.928497 
	C200.518845,183.928497 198.419846,183.928497 195.840881,183.928497 
z"/>
<path fill="#020202" opacity="1.000000" stroke="none" 
	d="
M266.891693,7.062029 
	C267.293488,6.971216 267.811493,6.670525 268.080475,6.819513 
	C287.317413,17.474485 304.613983,30.485062 314.502167,50.716686 
	C327.746216,77.814423 323.541260,103.973442 306.824402,128.033768 
	C295.075256,144.944183 286.741333,162.789459 284.908813,183.665405 
	C263.736938,183.665405 242.649307,183.665405 221.465225,183.665405 
	C218.722931,172.572433 221.341797,162.663116 228.253464,154.128464 
	C236.211914,144.301208 244.813232,134.995804 253.095779,125.429489 
	C264.393036,112.381203 274.138184,98.155159 274.697388,80.414818 
	C275.182831,65.013184 273.803223,49.490559 272.308899,34.112652 
	C271.446960,25.242603 268.723114,16.553478 266.898499,7.404281 
	C266.959686,7.025644 266.891693,7.062027 266.891693,7.062029 
z"/>
<path fill="#050505" opacity="1.000000" stroke="none" 
	d="
M295.999756,229.676636 
	C242.682938,229.678543 189.866135,229.685318 137.049316,229.678131 
	C126.906166,229.676743 120.734016,225.192017 119.992950,217.359024 
	C119.273445,209.753922 124.340530,203.346512 132.029541,202.222214 
	C133.339783,202.030609 134.689316,202.066360 136.020691,202.066254 
	C216.662125,202.059860 297.303558,202.054367 377.944977,202.068863 
	C388.023956,202.070679 394.302277,207.685699 394.051910,216.336060 
	C393.871246,222.579132 389.553619,227.883636 383.424103,229.091171 
	C381.156830,229.537811 378.794250,229.655273 376.474762,229.658356 
	C349.816498,229.693909 323.158112,229.678497 295.999756,229.676636 
z"/>
<path fill="#020202" opacity="1.000000" stroke="none" 
	d="
M372.654846,92.537766 
	C382.011688,111.946991 387.263214,131.794662 383.951141,153.174057 
	C382.380768,163.310776 378.739655,172.729309 373.085907,181.297485 
	C372.312378,182.469772 370.670410,183.809189 369.421875,183.817886 
	C347.455811,183.970673 325.488342,183.928421 303.316254,183.928421 
	C304.226868,172.103806 309.163086,162.510803 316.992432,154.442719 
	C324.642975,146.558884 332.525574,138.883484 340.583069,131.415176 
	C353.459015,119.480728 363.781097,105.808502 370.461548,89.123589 
	C371.232208,90.318977 371.849335,91.276253 372.654846,92.537766 
z"/>
<path fill="#010101" opacity="1.000000" stroke="none" 
	d="
M238.795227,454.993591 
	C238.795227,449.367828 238.795227,444.239807 238.795227,439.302612 
	C250.987183,439.302612 262.838135,439.302612 274.948120,439.302612 
	C274.948120,448.123657 274.948120,457.362518 274.948120,466.894836 
	C263.039612,466.894836 251.167465,466.894836 238.795227,466.894836 
	C238.795227,463.042725 238.795227,459.267029 238.795227,454.993591 
z"/>
<path fill="#020202" opacity="1.000000" stroke="none" 
	d="
M266.990417,7.002340 
	C266.838348,6.813841 266.655518,6.648647 266.472687,6.483450 
	C266.712677,6.563551 266.952698,6.643654 267.042175,6.892892 
	C266.891693,7.062027 266.959686,7.025644 266.990417,7.002340 
z"/>
<path fill="#FBFBFB" opacity="1.000000" stroke="none" 
	d="
M276.995026,293.043213 
	C278.220612,297.887878 281.261780,299.151337 285.612427,299.140198 
	C289.070831,299.131348 292.598175,299.690125 295.977051,300.492889 
	C302.810822,302.116394 307.399780,306.358734 309.313049,313.226807 
	C311.237946,320.136597 309.292175,326.036530 304.300659,330.971771 
	C301.700989,333.542145 298.613098,335.665527 296.280640,338.440460 
	C295.033295,339.924469 294.323944,342.395538 294.431549,344.363159 
	C294.610901,347.642700 295.644104,350.875153 296.313324,354.128357 
	C297.804230,361.376221 295.446106,367.351379 289.792847,371.823547 
	C283.967133,376.432129 277.397339,377.223511 270.601593,373.983551 
	C267.160858,372.343170 263.712555,370.626007 260.553955,368.515137 
	C257.919708,366.754700 255.854401,367.005707 253.335052,368.609680 
	C250.262024,370.566193 247.010391,372.272125 243.727875,373.863373 
	C236.991760,377.128906 230.432648,376.599762 224.502625,372.037933 
	C218.606995,367.502563 215.452667,361.210358 217.883240,354.059845 
	C221.232559,344.206360 219.020157,337.438568 210.423721,331.417603 
	C204.060471,326.960724 202.372482,319.708282 205.008270,312.152252 
	C207.622375,304.658325 213.260223,300.105652 221.092041,300.149994 
	C230.878510,300.205353 237.011658,296.814972 240.057449,287.037811 
	C242.461029,279.322113 248.907150,275.369598 256.928009,275.335358 
	C264.956146,275.301056 270.730591,279.466125 274.075348,286.851471 
	C274.964447,288.814606 275.936615,290.740173 276.995026,293.043213 
M236.028961,355.400238 
	C236.685959,355.779327 237.606354,356.650726 237.959427,356.461823 
	C241.765228,354.425476 245.519073,352.283997 249.213486,350.049500 
	C254.224442,347.018646 259.192780,346.874054 264.316071,349.777985 
	C268.705963,352.266205 273.177643,354.610199 278.328369,357.406219 
	C277.254486,352.155426 276.476440,347.753418 275.437195,343.414032 
	C273.983917,337.345978 275.252167,332.304169 280.169495,328.187195 
	C283.885315,325.076202 287.361115,321.678558 291.723450,317.696808 
	C286.265320,317.242462 281.984131,316.692139 277.690918,316.571411 
	C270.096863,316.357941 265.352600,312.667053 262.694855,305.625336 
	C261.229370,301.742432 259.093536,298.112610 256.927887,293.690796 
	C254.330429,299.144928 252.183258,303.630188 250.056763,308.125214 
	C247.825684,312.841278 244.302536,315.694977 238.966583,316.240784 
	C233.739746,316.775421 228.533356,317.509979 222.534027,318.254028 
	C223.994156,319.593018 224.898361,320.478119 225.860001,321.295654 
	C241.657272,334.726288 240.873886,333.086639 236.028961,355.400238 
z"/>
<path fill="#FDFDFD" opacity="1.000000" stroke="none" 
	d="
M103.066696,341.663696 
	C102.541969,337.130371 101.737770,333.014923 101.691322,328.890930 
	C101.530159,314.581604 101.563736,300.268860 101.654716,285.958252 
	C101.734291,273.442749 109.087479,266.151337 121.534050,266.085449 
	C129.838089,266.041504 138.142548,266.077118 147.195740,266.077118 
	C147.195740,268.008026 147.180176,269.746368 147.198166,271.484375 
	C147.366852,287.784668 147.088486,304.105591 147.832275,320.379730 
	C148.700363,339.373810 155.243820,356.672180 165.736908,372.489960 
	C166.285934,373.317596 166.776154,374.185242 167.264633,375.050690 
	C167.320038,375.148834 167.185379,375.354218 166.779160,376.713043 
	C156.233643,375.829346 145.093292,376.245728 134.670242,373.711700 
	C118.300903,369.732025 108.063744,358.198914 103.066696,341.663696 
z"/>
<path fill="#FDFDFD" opacity="1.000000" stroke="none" 
	d="
M355.304382,360.286163 
	C363.246155,344.341888 366.736786,327.744934 366.788086,310.378265 
	C366.831238,295.770935 366.796997,281.163391 366.796997,266.249146 
	C376.966980,266.249146 386.777283,265.700378 396.495819,266.409363 
	C405.527008,267.068176 412.089142,274.416840 412.216400,283.531464 
	C412.455597,300.665924 412.734802,317.834961 411.934570,334.939880 
	C410.928009,356.456360 391.835541,374.384369 369.356964,375.729340 
	C361.915009,376.174622 354.423981,375.799561 346.534637,375.799561 
	C349.485870,370.581757 352.304718,365.598022 355.304382,360.286163 
z"/>
<path fill="#040404" opacity="1.000000" stroke="none" 
	d="
M236.077881,354.990540 
	C240.873886,333.086639 241.657272,334.726288 225.860001,321.295654 
	C224.898361,320.478119 223.994156,319.593018 222.534027,318.254028 
	C228.533356,317.509979 233.739746,316.775421 238.966583,316.240784 
	C244.302536,315.694977 247.825684,312.841278 250.056763,308.125214 
	C252.183258,303.630188 254.330429,299.144928 256.927887,293.690796 
	C259.093536,298.112610 261.229370,301.742432 262.694855,305.625336 
	C265.352600,312.667053 270.096863,316.357941 277.690918,316.571411 
	C281.984131,316.692139 286.265320,317.242462 291.723450,317.696808 
	C287.361115,321.678558 283.885315,325.076202 280.169495,328.187195 
	C275.252167,332.304169 273.983917,337.345978 275.437195,343.414032 
	C276.476440,347.753418 277.254486,352.155426 278.328369,357.406219 
	C273.177643,354.610199 268.705963,352.266205 264.316071,349.777985 
	C259.192780,346.874054 254.224442,347.018646 249.213486,350.049500 
	C245.519073,352.283997 241.765228,354.425476 237.959427,356.461823 
	C237.606354,356.650726 236.685959,355.779327 236.077881,354.990540 
z"/>
</svg>